<svg width="150" height="147" viewBox="0 0 150 147" fill="none" xmlns="http://www.w3.org/2000/svg">
<g clip-path="url(#clip0_209_10305)">
<path d="M95.2261 32.9291H54.8077C53.8866 32.9302 53.0036 33.2966 52.3523 33.9479C51.701 34.5992 51.3346 35.4822 51.3335 36.4033V126.234L50.8703 126.375L40.955 129.412C40.4851 129.555 39.9775 129.506 39.5437 129.275C39.1099 129.045 38.7853 128.651 38.6412 128.182L9.14775 31.8428C9.00421 31.3729 9.05313 30.8652 9.28375 30.4314C9.51437 29.9975 9.90781 29.6729 10.3776 29.529L25.6571 24.8505L69.9528 11.2919L85.2321 6.61339C85.4646 6.54182 85.709 6.51682 85.9512 6.5398C86.1934 6.56278 86.4287 6.6333 86.6436 6.74731C86.8585 6.86133 87.0489 7.01661 87.2037 7.20427C87.3585 7.39192 87.4748 7.60827 87.546 7.84093L95.0849 32.4659L95.2261 32.9291Z" fill="#CBD5E0"/>
<path d="M104.046 32.4659L94.9599 2.78717C94.8088 2.29267 94.5616 1.8328 94.2327 1.43384C93.9037 1.03489 93.4994 0.704665 93.0427 0.462042C92.5861 0.219419 92.0861 0.0691507 91.5714 0.0198293C91.0566 -0.0294921 90.5372 0.0231 90.0428 0.174595L68.5609 6.75005L24.2675 20.3109L2.78558 26.8887C1.78764 27.1951 0.952055 27.885 0.462229 28.8068C-0.027597 29.7287 -0.131643 30.8073 0.172934 31.8058L31.2274 133.235C31.4748 134.041 31.9741 134.747 32.6519 135.248C33.3297 135.75 34.1504 136.021 34.9935 136.022C35.3837 136.022 35.7717 135.963 36.1445 135.848L50.8704 131.341L51.3336 131.197V130.713L50.8704 130.854L36.0079 135.406C35.1271 135.674 34.1757 135.582 33.3624 135.15C32.5491 134.718 31.9405 133.981 31.6698 133.101L0.617723 31.6691C0.483641 31.233 0.436909 30.7747 0.480204 30.3204C0.523498 29.8662 0.655963 29.425 0.870023 29.022C1.08408 28.6191 1.37553 28.2623 1.72767 27.9721C2.07982 27.682 2.48573 27.4641 2.92219 27.331L24.4042 20.7533L68.6976 7.19474L90.1796 0.616977C90.5106 0.515948 90.8548 0.464436 91.2009 0.464113C91.9437 0.465781 92.6665 0.705257 93.2633 1.14747C93.8602 1.58967 94.2997 2.21138 94.5176 2.92151L103.562 32.4659L103.706 32.9291H104.187L104.046 32.4659Z" fill="#051220"/>
<path d="M28.4143 29.6048C27.9679 29.6045 27.5334 29.4611 27.1744 29.1957C26.8154 28.9303 26.551 28.5569 26.4198 28.1302L23.4366 18.3859C23.3564 18.1241 23.3286 17.8491 23.3547 17.5766C23.3808 17.3041 23.4604 17.0394 23.5888 16.7977C23.7172 16.5559 23.892 16.3419 24.1032 16.1677C24.3144 15.9935 24.5578 15.8626 24.8196 15.7825L65.5691 3.30702C66.0977 3.14571 66.6687 3.20073 67.1568 3.45999C67.6449 3.71926 68.0103 4.16159 68.1726 4.68991L71.1558 14.4343C71.317 14.9629 71.262 15.5339 71.0027 16.022C70.7435 16.5101 70.3012 16.8754 69.7729 17.0378L29.0233 29.5133C28.826 29.5738 28.6207 29.6047 28.4143 29.6048Z" fill="#0BC5EA"/>
<path d="M44.0419 10.412C46.6002 10.412 48.6741 8.33809 48.6741 5.77978C48.6741 3.22147 46.6002 1.14755 44.0419 1.14755C41.4836 1.14755 39.4097 3.22147 39.4097 5.77978C39.4097 8.33809 41.4836 10.412 44.0419 10.412Z" fill="#0BC5EA"/>
<path d="M44.0417 8.71306C45.6617 8.71306 46.9749 7.39979 46.9749 5.77978C46.9749 4.15978 45.6617 2.84651 44.0417 2.84651C42.4217 2.84651 41.1084 4.15978 41.1084 5.77978C41.1084 7.39979 42.4217 8.71306 44.0417 8.71306Z" fill="white"/>
<path d="M139.578 134.838H61.2929C60.771 134.838 60.2706 134.63 59.9015 134.261C59.5324 133.892 59.3248 133.391 59.3242 132.869V39.0668C59.3248 38.5448 59.5324 38.0444 59.9015 37.6754C60.2706 37.3063 60.771 37.0987 61.2929 37.0981H139.578C140.1 37.0987 140.6 37.3063 140.969 37.6754C141.338 38.0445 141.546 38.5449 141.546 39.0668V132.869C141.546 133.391 141.338 133.892 140.969 134.261C140.6 134.63 140.1 134.838 139.578 134.838Z" fill="#EDF2F7"/>
<path d="M103.562 32.4659H54.8075C53.7637 32.4673 52.7631 32.8827 52.025 33.6207C51.2869 34.3588 50.8716 35.3595 50.8701 36.4033V130.854L51.3333 130.713V36.4033C51.3345 35.4822 51.7008 34.5992 52.3521 33.9479C53.0034 33.2966 53.8864 32.9302 54.8075 32.9291H103.705L103.562 32.4659ZM146.062 32.4659H54.8075C53.7637 32.4673 52.7631 32.8827 52.025 33.6207C51.2869 34.3588 50.8716 35.3595 50.8701 36.4033V142.481C50.8716 143.525 51.2869 144.526 52.025 145.264C52.7631 146.002 53.7637 146.417 54.8075 146.419H146.062C147.106 146.417 148.107 146.002 148.845 145.264C149.583 144.526 149.998 143.525 150 142.481V36.4033C149.998 35.3595 149.583 34.3588 148.845 33.6207C148.107 32.8827 147.106 32.4673 146.062 32.4659ZM149.537 142.481C149.535 143.402 149.169 144.285 148.518 144.937C147.867 145.588 146.984 145.954 146.062 145.956H54.8075C53.8864 145.954 53.0034 145.588 52.3521 144.937C51.7008 144.285 51.3345 143.402 51.3333 142.481V36.4033C51.3345 35.4822 51.7008 34.5992 52.3521 33.9479C53.0034 33.2966 53.8864 32.9302 54.8075 32.9291H146.062C146.984 32.9302 147.867 33.2966 148.518 33.9479C149.169 34.5992 149.535 35.4822 149.537 36.4033V142.481Z" fill="#051220"/>
<path d="M121.743 42.6568H79.127C78.5743 42.6562 78.0445 42.4363 77.6537 42.0455C77.2629 41.6548 77.0431 41.1249 77.0425 40.5723V30.3814C77.0431 29.8287 77.2629 29.2989 77.6537 28.9081C78.0445 28.5173 78.5743 28.2975 79.127 28.2969H121.743C122.296 28.2975 122.826 28.5173 123.217 28.9081C123.608 29.2989 123.827 29.8287 123.828 30.3814V40.5723C123.827 41.1249 123.608 41.6548 123.217 42.0455C122.826 42.4363 122.296 42.6562 121.743 42.6568Z" fill="#0BC5EA"/>
<path d="M100.435 28.9917C102.993 28.9917 105.067 26.9178 105.067 24.3595C105.067 21.8012 102.993 19.7272 100.435 19.7272C97.8767 19.7272 95.8027 21.8012 95.8027 24.3595C95.8027 26.9178 97.8767 28.9917 100.435 28.9917Z" fill="#0BC5EA"/>
<path d="M100.435 27.1809C101.993 27.1809 103.257 25.9177 103.257 24.3595C103.257 22.8012 101.993 21.538 100.435 21.538C98.877 21.538 97.6138 22.8012 97.6138 24.3595C97.6138 25.9177 98.877 27.1809 100.435 27.1809Z" fill="white"/>
</g>
<defs>
<clipPath id="clip0_209_10305">
<rect width="150" height="146.419" fill="white"/>
</clipPath>
</defs>
</svg>
