<svg width="45" height="45" viewBox="0 0 45 45" fill="none" xmlns="http://www.w3.org/2000/svg">
<path d="M19.8212 1.10959C21.5364 0.39913 23.4636 0.399131 25.1788 1.10959L35.7311 5.48051C37.4463 6.19097 38.809 7.55368 39.5195 9.26888L43.8904 19.8212C44.6009 21.5364 44.6009 23.4636 43.8904 25.1788L39.5195 35.7311C38.809 37.4463 37.4463 38.809 35.7311 39.5195L25.1788 43.8904C23.4636 44.6009 21.5364 44.6009 19.8212 43.8904L9.26888 39.5195C7.55368 38.809 6.19097 37.4463 5.48051 35.7311L1.10959 25.1788C0.39913 23.4636 0.399131 21.5364 1.10959 19.8212L5.48051 9.26888C6.19097 7.55368 7.55368 6.19097 9.26888 5.48051L19.8212 1.10959Z" fill="#00B5D8"/>
<path d="M29.8122 21.9973L20.2676 32.2237C20.2057 32.2937 20.1296 32.3496 20.0444 32.3878C19.9591 32.4261 19.8667 32.4456 19.7733 32.4453C19.6637 32.4442 19.5558 32.4179 19.458 32.3686C19.3282 32.2985 19.2242 32.1887 19.1613 32.0553C19.0985 31.9219 19.08 31.7718 19.1086 31.6271L20.3528 25.3806L15.4442 23.5398C15.3393 23.4991 15.2458 23.4337 15.1716 23.3491C15.0974 23.2646 15.0447 23.1634 15.0181 23.0541C14.9921 22.9444 14.9941 22.83 15.0239 22.7213C15.0537 22.6126 15.1103 22.5131 15.1885 22.432L24.7331 12.2056C24.835 12.1012 24.9676 12.0322 25.1116 12.0088C25.2556 11.9854 25.4033 12.0088 25.533 12.0756C25.6627 12.1423 25.7676 12.2489 25.8322 12.3797C25.8969 12.5105 25.9178 12.6586 25.8921 12.8022L24.6479 19.0573L29.5565 20.898C29.6619 20.9363 29.7561 21.0002 29.8304 21.0841C29.9048 21.168 29.9571 21.2691 29.9825 21.3783C30.0079 21.4875 30.0056 21.6014 29.9759 21.7095C29.9461 21.8176 29.8899 21.9165 29.8122 21.9973Z" fill="#051220"/>
</svg>
