<svg width="22" height="23" viewBox="0 0 22 23" fill="none" xmlns="http://www.w3.org/2000/svg">
<path fill-rule="evenodd" clip-rule="evenodd" d="M8.9518 0.139159C9.4445 -0.00864364 9.96494 -0.0392191 10.4716 0.0498736C10.9782 0.138966 11.457 0.34526 11.8697 0.652287C12.2824 0.959314 12.6176 1.35857 12.8486 1.81819C13.0796 2.27781 13.1999 2.78506 13.2 3.29946V19.3859C13.1999 19.9003 13.0796 20.4075 12.8486 20.8671C12.6176 21.3267 12.2824 21.726 11.8697 22.033C11.457 22.3401 10.9782 22.5464 10.4716 22.6354C9.96494 22.7245 9.4445 22.694 8.9518 22.5462L2.3518 20.5662C1.67211 20.3623 1.07625 19.9447 0.65261 19.3754C0.228969 18.8061 0.000116368 18.1155 0 17.4059V5.27946C0.000116368 4.56985 0.228969 3.87917 0.65261 3.30989C1.07625 2.74061 1.67211 2.32305 2.3518 2.11916L8.9518 0.139159ZM14.3 2.54266C14.3 2.25092 14.4159 1.97113 14.6222 1.76484C14.8285 1.55855 15.1083 1.44266 15.4 1.44266H18.7C19.5752 1.44266 20.4146 1.79034 21.0335 2.40921C21.6523 3.02808 22 3.86744 22 4.74266V5.84266C22 6.1344 21.8841 6.41419 21.6778 6.62048C21.4715 6.82677 21.1917 6.94266 20.9 6.94266C20.6083 6.94266 20.3285 6.82677 20.1222 6.62048C19.9159 6.41419 19.8 6.1344 19.8 5.84266V4.74266C19.8 4.45092 19.6841 4.17113 19.4778 3.96484C19.2715 3.75855 18.9917 3.64266 18.7 3.64266H15.4C15.1083 3.64266 14.8285 3.52677 14.6222 3.32048C14.4159 3.11419 14.3 2.8344 14.3 2.54266ZM20.9 15.7427C21.1917 15.7427 21.4715 15.8586 21.6778 16.0648C21.8841 16.2711 22 16.5509 22 16.8427V17.9427C22 18.8179 21.6523 19.6572 21.0335 20.2761C20.4146 20.895 19.5752 21.2427 18.7 21.2427H15.4C15.1083 21.2427 14.8285 21.1268 14.6222 20.9205C14.4159 20.7142 14.3 20.4344 14.3 20.1427C14.3 19.8509 14.4159 19.5711 14.6222 19.3648C14.8285 19.1586 15.1083 19.0427 15.4 19.0427H18.7C18.9917 19.0427 19.2715 18.9268 19.4778 18.7205C19.6841 18.5142 19.8 18.2344 19.8 17.9427V16.8427C19.8 16.5509 19.9159 16.2711 20.1222 16.0648C20.3285 15.8586 20.6083 15.7427 20.9 15.7427ZM7.7 10.2427C7.40826 10.2427 7.12847 10.3586 6.92218 10.5648C6.71589 10.7711 6.6 11.0509 6.6 11.3427C6.6 11.6344 6.71589 11.9142 6.92218 12.1205C7.12847 12.3268 7.40826 12.4427 7.7 12.4427H7.7011C7.99284 12.4427 8.27263 12.3268 8.47892 12.1205C8.68521 11.9142 8.8011 11.6344 8.8011 11.3427C8.8011 11.0509 8.68521 10.7711 8.47892 10.5648C8.27263 10.3586 7.99284 10.2427 7.7011 10.2427H7.7Z" fill="white"/>
<path d="M15.3999 11.3427H20.8999M20.8999 11.3427L18.6999 9.14267M20.8999 11.3427L18.6999 13.5427" stroke="white" stroke-width="2" stroke-linecap="round" stroke-linejoin="round"/>
</svg>
