<?xml version="1.0" standalone="no"?>
<!DOCTYPE svg PUBLIC "-//W3C//DTD SVG 20010904//EN"
 "http://www.w3.org/TR/2001/REC-SVG-20010904/DTD/svg10.dtd">
<svg version="1.0" xmlns="http://www.w3.org/2000/svg"
 width="700.000000pt" height="700.000000pt" viewBox="0 0 700.000000 700.000000"
 preserveAspectRatio="xMidYMid meet">
<metadata>
Created by potrace 1.14, written by Peter Selinger 2001-2017
</metadata>
<g transform="translate(0.000000,700.000000) scale(0.100000,-0.100000)"
fill="#000000" stroke="none">
<path d="M2895 6750 c-319 -132 -589 -244 -600 -250 -11 -5 -99 -41 -195 -80
-96 -39 -188 -77 -205 -85 -16 -7 -201 -84 -410 -170 -462 -191 -441 -182
-463 -214 -15 -21 -285 -667 -539 -1286 -29 -71 -57 -139 -63 -150 -5 -11 -25
-60 -45 -110 -37 -93 -42 -106 -68 -165 -8 -19 -43 -102 -77 -185 -34 -82 -67
-163 -75 -180 -7 -16 -27 -66 -45 -110 -18 -44 -46 -111 -62 -148 -16 -38 -32
-83 -35 -100 -6 -37 -6 -37 147 -402 62 -148 120 -290 130 -315 30 -75 91
-223 105 -255 8 -16 30 -70 50 -118 20 -48 41 -100 47 -115 6 -15 12 -29 13
-32 1 -3 9 -23 19 -45 10 -22 30 -71 46 -110 15 -38 73 -178 128 -310 55 -132
148 -357 207 -500 59 -143 117 -269 128 -280 27 -25 5 -15 457 -202 206 -85
391 -162 410 -170 19 -8 44 -19 55 -24 11 -4 142 -58 290 -119 332 -137 389
-161 845 -351 287 -120 375 -153 410 -153 34 0 91 20 225 76 99 42 297 124
440 183 143 59 274 113 290 120 17 7 98 41 180 74 83 34 159 66 170 71 11 5
115 48 230 96 116 47 224 92 240 99 17 8 170 71 340 141 287 118 375 161 375
184 0 5 11 33 24 62 14 30 34 78 46 108 11 30 27 69 34 85 8 17 39 93 71 170
31 77 61 149 65 160 24 54 109 258 181 434 45 108 87 210 94 226 7 17 73 174
145 350 73 176 177 428 232 560 55 132 102 253 105 270 3 18 -4 52 -17 85 -12
30 -30 75 -40 100 -21 54 -186 452 -205 495 -7 17 -52 125 -100 240 -188 455
-327 791 -340 820 -7 17 -23 55 -34 85 -12 30 -26 64 -31 75 -16 33 -191 456
-213 513 -26 68 -50 86 -212 152 -71 29 -154 64 -183 76 -29 13 -58 24 -65 24
-7 0 -17 4 -23 8 -5 5 -36 19 -69 32 -33 13 -83 34 -110 46 -28 12 -75 32
-105 44 -30 12 -68 28 -85 35 -16 8 -147 62 -290 120 -143 59 -273 113 -290
120 -16 7 -151 63 -300 124 -148 62 -281 117 -295 123 -34 15 -51 22 -155 64
-49 20 -108 44 -130 54 -94 41 -175 70 -197 70 -13 0 -284 -108 -603 -240z"/>
</g>
</svg>
